<svg width="22" height="22" viewBox="0 0 22 22" fill="none" xmlns="http://www.w3.org/2000/svg">
<path fill-rule="evenodd" clip-rule="evenodd" d="M2 11C2 6.02157 6.02157 2 11 2C15.9784 2 20 6.02157 20 11C20 15.9784 15.9784 20 11 20C6.02157 20 2 15.9784 2 11ZM11 0C4.917 0 0 4.917 0 11C0 17.083 4.917 22 11 22C17.083 22 22 17.083 22 11C22 4.917 17.083 0 11 0ZM14.179 15.73C14.608 16.159 15.301 16.159 15.73 15.73C16.148 15.301 16.148 14.597 15.73 14.179L12.551 11L15.73 7.821C16.159 7.392 16.159 6.699 15.73 6.27C15.301 5.841 14.608 5.841 14.179 6.27L11 9.449L7.82099 6.27C7.39199 5.841 6.69899 5.841 6.26999 6.27C6.06401 6.47552 5.94825 6.75453 5.94825 7.0455C5.94825 7.33647 6.06401 7.61549 6.26999 7.821L9.44899 11L6.26999 14.179C6.06401 14.3845 5.94825 14.6635 5.94825 14.9545C5.94825 15.2455 6.06401 15.5245 6.26999 15.73C6.69899 16.159 7.39199 16.159 7.82099 15.73L11 12.551L14.179 15.73Z" fill="#331196"/>
</svg>
