<svg width="22" height="22" viewBox="0 0 22 22" fill="none" xmlns="http://www.w3.org/2000/svg">
<path fill-rule="evenodd" clip-rule="evenodd" d="M0 11C0 4.928 4.928 0 11 0C17.072 0 22 4.928 22 11C22 17.072 17.072 22 11 22C4.928 22 0 17.072 0 11ZM4.06994 11.7699L8.01894 15.7189C8.44794 16.1479 9.15194 16.1479 9.56994 15.7189L17.9189 7.36995C18.3479 6.94095 18.3479 6.24795 17.9189 5.81895C17.4899 5.38995 16.7969 5.38995 16.3679 5.81895L8.79994 13.3869L5.62094 10.2189C5.19194 9.78995 4.49894 9.78995 4.06994 10.2189C3.86396 10.4245 3.74821 10.7035 3.74821 10.9944C3.74821 11.2854 3.86396 11.5644 4.06994 11.7699Z" fill="#331196"/>
</svg>
